<svg width="36" height="36" viewBox="0 0 36 36" fill="none" xmlns="http://www.w3.org/2000/svg">
<path d="M27.211 32.4299C25.891 32.8199 24.331 32.9999 22.501 32.9999H13.501C11.671 32.9999 10.111 32.8199 8.79102 32.4299C9.12102 28.5299 13.126 25.4548 18.001 25.4548C22.876 25.4548 26.881 28.5299 27.211 32.4299Z" stroke="#292D32" stroke-width="1.5" stroke-linecap="round" stroke-linejoin="round"/>
<path d="M22.5 3H13.5C6 3 3 6 3 13.5V22.5C3 28.17 4.71 31.275 8.79 32.43C9.12 28.53 13.125 25.455 18 25.455C22.875 25.455 26.88 28.53 27.21 32.43C31.29 31.275 33 28.17 33 22.5V13.5C33 6 30 3 22.5 3ZM18 21.255C15.03 21.255 12.63 18.84 12.63 15.87C12.63 12.9 15.03 10.5 18 10.5C20.97 10.5 23.37 12.9 23.37 15.87C23.37 18.84 20.97 21.255 18 21.255Z" stroke="#292D32" stroke-width="1.5" stroke-linecap="round" stroke-linejoin="round"/>
<path d="M23.3699 15.87C23.3699 18.84 20.9699 21.255 17.9999 21.255C15.0299 21.255 12.6299 18.84 12.6299 15.87C12.6299 12.9 15.0299 10.5 17.9999 10.5C20.9699 10.5 23.3699 12.9 23.3699 15.87Z" stroke="#292D32" stroke-width="1.5" stroke-linecap="round" stroke-linejoin="round"/>
</svg>
