<svg width="87" height="88" viewBox="0 0 87 88" fill="none" xmlns="http://www.w3.org/2000/svg">
<path d="M43.34 2.33337C20.3275 2.33337 1.67334 20.9875 1.67334 44C1.67334 67.0125 20.3275 85.6667 43.34 85.6667C66.3525 85.6667 85.0067 67.0125 85.0067 44C85.0067 20.9875 66.3525 2.33337 43.34 2.33337Z" stroke="black" stroke-opacity="0.5" stroke-width="3" stroke-linecap="round" stroke-linejoin="round"/>
<path d="M11.1359 70.4417C11.1359 70.4417 20.4234 58.5833 43.34 58.5833C66.2567 58.5833 75.5484 70.4417 75.5484 70.4417M43.34 44C46.6552 44 49.8347 42.683 52.1789 40.3388C54.5231 37.9946 55.84 34.8152 55.84 31.5C55.84 28.1848 54.5231 25.0054 52.1789 22.6612C49.8347 20.317 46.6552 19 43.34 19C40.0248 19 36.8454 20.317 34.5012 22.6612C32.157 25.0054 30.84 28.1848 30.84 31.5C30.84 34.8152 32.157 37.9946 34.5012 40.3388C36.8454 42.683 40.0248 44 43.34 44Z" stroke="black" stroke-opacity="0.5" stroke-width="3" stroke-linecap="round" stroke-linejoin="round"/>
</svg>
