<svg width="36" height="36" viewBox="0 0 36 36" fill="none" xmlns="http://www.w3.org/2000/svg">
<path d="M18.0294 4.36499C13.0644 4.36499 9.0294 8.39999 9.0294 13.365V17.7C9.0294 18.615 8.6394 20.01 8.1744 20.79L6.4494 23.655C5.3844 25.425 6.1194 27.39 8.0694 28.05C14.5344 30.21 21.5094 30.21 27.9744 28.05C29.7894 27.45 30.5844 25.305 29.5944 23.655L27.8694 20.79C27.4194 20.01 27.0294 18.615 27.0294 17.7V13.365C27.0294 8.41499 22.9794 4.36499 18.0294 4.36499Z" stroke="#292D32" stroke-width="1.5" stroke-miterlimit="10" stroke-linecap="round"/>
<path d="M20.8049 4.79991C20.3399 4.66491 19.8599 4.55991 19.3649 4.49991C17.9249 4.31991 16.5449 4.42491 15.2549 4.79991C15.6899 3.68991 16.7699 2.90991 18.0299 2.90991C19.2899 2.90991 20.3699 3.68991 20.8049 4.79991Z" stroke="#292D32" stroke-width="1.5" stroke-miterlimit="10" stroke-linecap="round" stroke-linejoin="round"/>
<path d="M22.5293 28.5901C22.5293 31.0651 20.5043 33.0901 18.0293 33.0901C16.7993 33.0901 15.6593 32.5801 14.8493 31.7701C14.0393 30.9601 13.5293 29.8201 13.5293 28.5901" stroke="#292D32" stroke-width="1.5" stroke-miterlimit="10"/>
</svg>
